<mxfile host="app.diagrams.net" modified="2023-04-12T05:43:45.630Z" agent="Mozilla/5.0 (Windows NT 10.0; Win64; x64) AppleWebKit/537.36 (KHTML, like Gecko) Chrome/111.0.0.0 Safari/537.36" etag="IxTx_easIQKWywTxIQl9" version="21.1.6" type="google">
  <diagram name="第 1 页" id="mOyWBV5s5NIlG3D5CBzR">
    <mxGraphModel grid="1" page="1" gridSize="10" guides="1" tooltips="1" connect="1" arrows="1" fold="1" pageScale="1" pageWidth="2339" pageHeight="3300" math="0" shadow="0">
      <root>
        <mxCell id="0" />
        <mxCell id="1" parent="0" />
        <mxCell id="0dInBAeZ58v6gxg7AQRT-1" value="&lt;p style=&quot;margin:0px;margin-top:4px;text-align:center;&quot;&gt;&lt;b&gt;Project&lt;/b&gt;&lt;/p&gt;&lt;hr size=&quot;1&quot;/&gt;&lt;p style=&quot;margin:0 0 0 4px;line-height:1.6;&quot;&gt;~ status: ProjectStatus&lt;br/&gt;- projectID: String&lt;br/&gt;- studentID: String&lt;br/&gt;- projectTitle: String&lt;br/&gt;- supervisorID: String&lt;/p&gt;&lt;hr size=&quot;1&quot;/&gt;&lt;p style=&quot;margin:0 0 0 4px;line-height:1.6;&quot;&gt;+ setSupervisorID(String): void&lt;br/&gt;+ getStatus(): ProjectStatus&lt;br/&gt;- displaySupervisorInformation(String): void&lt;br/&gt;+ setProjectTitle(String): void&lt;br/&gt;+ setStatus(ProjectStatus): void&lt;br/&gt;- displayProjectInformation(): void&lt;br/&gt;- displayProjectID(): void&lt;br/&gt;+ assignStudent(String): void&lt;br/&gt;- displayStudentInformation(): void&lt;br/&gt;+ getStudentID(): String&lt;br/&gt;+ displayProject(): void&lt;br/&gt;+ getSupervisorID(): String&lt;br/&gt;+ getProjectTitle(): String&lt;br/&gt;+ setStudentID(String): void&lt;br/&gt;+ getID(): String&lt;/p&gt;" style="verticalAlign=top;align=left;overflow=fill;fontSize=14;fontFamily=Helvetica;html=1;rounded=0;shadow=0;comic=0;labelBackgroundColor=none;strokeWidth=1;fillColor=#dae8fc;strokeColor=#6c8ebf;" vertex="1" parent="1">
          <mxGeometry x="-420" y="421" width="280" height="496" as="geometry" />
        </mxCell>
        <mxCell id="0dInBAeZ58v6gxg7AQRT-2" value="&lt;p style=&quot;margin:0px;margin-top:4px;text-align:center;&quot;&gt;&lt;i&gt;&amp;lt;&amp;lt;enumeration&amp;gt;&amp;gt;&lt;/i&gt;&lt;br/&gt;&lt;b&gt;ProjectStatus&lt;/b&gt;&lt;/p&gt;&lt;hr size=&quot;1&quot;/&gt;&lt;p style=&quot;margin:0 0 0 4px;line-height:1.6;&quot;&gt;+ RESERVED: &lt;br/&gt;+ UNAVAILABLE: &lt;br/&gt;+ AVAILABLE: &lt;br/&gt;+ ALLOCATED: &lt;/p&gt;&lt;hr size=&quot;1&quot;/&gt;&lt;p style=&quot;margin:0 0 0 4px;line-height:1.6;&quot;&gt;+ values(): ProjectStatus[]&lt;br/&gt;+ valueOf(String): ProjectStatus&lt;/p&gt;" style="verticalAlign=top;align=left;overflow=fill;fontSize=14;fontFamily=Helvetica;html=1;rounded=0;shadow=0;comic=0;labelBackgroundColor=none;strokeWidth=1;fillColor=#dae8fc;strokeColor=#6c8ebf;" vertex="1" parent="1">
          <mxGeometry x="-384.5" y="86" width="205" height="204" as="geometry" />
        </mxCell>
        <mxCell id="0dInBAeZ58v6gxg7AQRT-3" value="" style="html=1;rounded=1;edgeStyle=orthogonalEdgeStyle;dashed=0;startArrow=diamondThinstartSize=12;endArrow=openThin;endSize=12;strokeColor=#595959;exitX=0.500;exitY=0.000;exitDx=0;exitDy=0;entryX=0.51;entryY=0.999;entryDx=0;entryDy=0;entryPerimeter=0;" edge="1" parent="1" source="0dInBAeZ58v6gxg7AQRT-1" target="0dInBAeZ58v6gxg7AQRT-2">
          <mxGeometry width="50" height="50" relative="1" as="geometry">
            <Array as="points" />
          </mxGeometry>
        </mxCell>
        <mxCell id="0dInBAeZ58v6gxg7AQRT-4" value="1" style="edgeLabel;resizable=0;html=1;align=left;verticalAlign=top;strokeColor=default;" connectable="0" vertex="1" parent="0dInBAeZ58v6gxg7AQRT-3">
          <mxGeometry x="55" y="211" as="geometry" />
        </mxCell>
        <mxCell id="0dInBAeZ58v6gxg7AQRT-5" value="1" style="edgeLabel;resizable=0;html=1;align=left;verticalAlign=top;strokeColor=default;" connectable="0" vertex="1" parent="0dInBAeZ58v6gxg7AQRT-3">
          <mxGeometry x="55" y="180" as="geometry" />
        </mxCell>
        <mxCell id="0dInBAeZ58v6gxg7AQRT-6" value="status" style="edgeLabel;resizable=0;html=1;align=left;verticalAlign=top;strokeColor=default;" connectable="0" vertex="1" parent="0dInBAeZ58v6gxg7AQRT-3">
          <mxGeometry x="80" y="180" as="geometry" />
        </mxCell>
        <mxCell id="0dInBAeZ58v6gxg7AQRT-7" value="&lt;p style=&quot;margin:0px;margin-top:4px;text-align:center;&quot;&gt;&lt;i&gt;&amp;lt;&amp;lt;interface&amp;gt;&amp;gt;&lt;/i&gt;&lt;br/&gt;&lt;b&gt;Request&lt;/b&gt;&lt;/p&gt;&lt;hr size=&quot;1&quot;/&gt;&lt;p style=&quot;margin:0 0 0 4px;line-height:1.6;&quot;&gt;+ getProjectID(): String&lt;br/&gt;+ display(): void&lt;br/&gt;+ setStatus(RequestStatus): void&lt;br/&gt;+ getID(): String&lt;br/&gt;+ getRequestType(): RequestType&lt;br/&gt;+ getSupervisorID(): String&lt;br/&gt;+ getStudentID(): String&lt;br/&gt;+ getStatus(): RequestStatus&lt;/p&gt;" style="verticalAlign=top;align=left;overflow=fill;fontSize=14;fontFamily=Helvetica;html=1;rounded=0;shadow=0;comic=0;labelBackgroundColor=none;strokeWidth=1;fillColor=#dae8fc;strokeColor=#6c8ebf;" vertex="1" parent="1">
          <mxGeometry x="7" y="10" width="223" height="229" as="geometry" />
        </mxCell>
        <mxCell id="0dInBAeZ58v6gxg7AQRT-8" value="&lt;p style=&quot;margin:0px;margin-top:4px;text-align:center;&quot;&gt;&lt;b&gt;RequestFactory&lt;/b&gt;&lt;/p&gt;&lt;hr size=&quot;1&quot;/&gt;&lt;p style=&quot;margin:0 0 0 4px;line-height:1.6;&quot;&gt;+ createRequest(Map&amp;lt;String, String&amp;gt;): Request&lt;/p&gt;" style="verticalAlign=top;align=left;overflow=fill;fontSize=14;fontFamily=Helvetica;html=1;rounded=0;shadow=0;comic=0;labelBackgroundColor=none;strokeWidth=1;fillColor=#dae8fc;strokeColor=#6c8ebf;" vertex="1" parent="1">
          <mxGeometry x="222" y="980" width="308" height="63" as="geometry" />
        </mxCell>
        <mxCell id="0dInBAeZ58v6gxg7AQRT-9" value="&lt;p style=&quot;margin:0px;margin-top:4px;text-align:center;&quot;&gt;&lt;i&gt;&amp;lt;&amp;lt;enumeration&amp;gt;&amp;gt;&lt;/i&gt;&lt;br/&gt;&lt;b&gt;RequestStatus&lt;/b&gt;&lt;/p&gt;&lt;hr size=&quot;1&quot;/&gt;&lt;p style=&quot;margin:0 0 0 4px;line-height:1.6;&quot;&gt;+ APPROVED: &lt;br/&gt;+ DENIED: &lt;br/&gt;+ PENDING: &lt;/p&gt;&lt;hr size=&quot;1&quot;/&gt;&lt;p style=&quot;margin:0 0 0 4px;line-height:1.6;&quot;&gt;+ valueOf(String): RequestStatus&lt;br/&gt;+ values(): RequestStatus[]&lt;/p&gt;" style="verticalAlign=top;align=left;overflow=fill;fontSize=14;fontFamily=Helvetica;html=1;rounded=0;shadow=0;comic=0;labelBackgroundColor=none;strokeWidth=1;fillColor=#dae8fc;strokeColor=#6c8ebf;" vertex="1" parent="1">
          <mxGeometry x="520" y="18" width="218" height="192" as="geometry" />
        </mxCell>
        <mxCell id="0dInBAeZ58v6gxg7AQRT-10" value="&lt;p style=&quot;margin:0px;margin-top:4px;text-align:center;&quot;&gt;&lt;i&gt;&amp;lt;&amp;lt;enumeration&amp;gt;&amp;gt;&lt;/i&gt;&lt;br/&gt;&lt;b&gt;RequestType&lt;/b&gt;&lt;/p&gt;&lt;hr size=&quot;1&quot;/&gt;&lt;p style=&quot;margin:0 0 0 4px;line-height:1.6;&quot;&gt;+ SUPERVISOR_TRANSFER_STUDENT: &lt;br/&gt;+ STUDENT_REGISTRATION: &lt;br/&gt;+ STUDENT_DEREGISTRATION: &lt;br/&gt;+ STUDENT_CHANGE_TITLE: &lt;/p&gt;&lt;hr size=&quot;1&quot;/&gt;&lt;p style=&quot;margin:0 0 0 4px;line-height:1.6;&quot;&gt;+ values(): RequestType[]&lt;br/&gt;+ valueOf(String): RequestType&lt;/p&gt;" style="verticalAlign=top;align=left;overflow=fill;fontSize=14;fontFamily=Helvetica;html=1;rounded=0;shadow=0;comic=0;labelBackgroundColor=none;strokeWidth=1;fillColor=#dae8fc;strokeColor=#6c8ebf;" vertex="1" parent="1">
          <mxGeometry x="240" y="16" width="270" height="204" as="geometry" />
        </mxCell>
        <mxCell id="0dInBAeZ58v6gxg7AQRT-11" value="&lt;p style=&quot;margin:0px;margin-top:4px;text-align:center;&quot;&gt;&lt;b&gt;StudentChangeTitleRequest&lt;/b&gt;&lt;/p&gt;&lt;hr size=&quot;1&quot;/&gt;&lt;p style=&quot;margin:0 0 0 4px;line-height:1.6;&quot;&gt;- requestStatus: RequestStatus&lt;br/&gt;- projectID: String&lt;br/&gt;- supervisorID: String&lt;br/&gt;- newTitle: String&lt;br/&gt;- studentID: String&lt;br/&gt;- requestType: RequestType&lt;br/&gt;- requestID: String&lt;/p&gt;&lt;hr size=&quot;1&quot;/&gt;&lt;p style=&quot;margin:0 0 0 4px;line-height:1.6;&quot;&gt;+ display(): void&lt;br/&gt;+ getStatus(): RequestStatus&lt;br/&gt;+ getProjectID(): String&lt;br/&gt;+ setNewTitle(String): void&lt;br/&gt;+ setStudentID(String): void&lt;br/&gt;+ setProjectID(String): void&lt;br/&gt;+ setStatus(RequestStatus): void&lt;br/&gt;+ getSupervisorID(): String&lt;br/&gt;+ setSupervisorID(String): void&lt;br/&gt;+ getRequestType(): RequestType&lt;br/&gt;+ getID(): String&lt;br/&gt;+ getNewTitle(): String&lt;br/&gt;+ getStudentID(): String&lt;/p&gt;" style="verticalAlign=top;align=left;overflow=fill;fontSize=14;fontFamily=Helvetica;html=1;rounded=0;shadow=0;comic=0;labelBackgroundColor=none;strokeWidth=1;fillColor=#dae8fc;strokeColor=#6c8ebf;" vertex="1" parent="1">
          <mxGeometry x="599" y="379" width="218" height="511" as="geometry" />
        </mxCell>
        <mxCell id="0dInBAeZ58v6gxg7AQRT-12" value="&lt;p style=&quot;margin:0px;margin-top:4px;text-align:center;&quot;&gt;&lt;b&gt;StudentDeregistrationRequest&lt;/b&gt;&lt;/p&gt;&lt;hr size=&quot;1&quot;/&gt;&lt;p style=&quot;margin:0 0 0 4px;line-height:1.6;&quot;&gt;+ requestID: String&lt;br/&gt;- supervisorID: String&lt;br/&gt;- coordinatorID: String&lt;br/&gt;- projectID: String&lt;br/&gt;- requestStatus: RequestStatus&lt;br/&gt;- requestType: RequestType&lt;br/&gt;- studentID: String&lt;/p&gt;&lt;hr size=&quot;1&quot;/&gt;&lt;p style=&quot;margin:0 0 0 4px;line-height:1.6;&quot;&gt;+ setStatus(RequestStatus): void&lt;br/&gt;+ getSupervisorID(): String&lt;br/&gt;+ getProjectID(): String&lt;br/&gt;+ getID(): String&lt;br/&gt;+ setCoordinatorID(String): void&lt;br/&gt;+ getStatus(): RequestStatus&lt;br/&gt;+ display(): void&lt;br/&gt;+ getRequestType(): RequestType&lt;br/&gt;+ getStudentID(): String&lt;br/&gt;+ getCoordinatorID(): String&lt;/p&gt;" style="verticalAlign=top;align=left;overflow=fill;fontSize=14;fontFamily=Helvetica;html=1;rounded=0;shadow=0;comic=0;labelBackgroundColor=none;strokeWidth=1;fillColor=#dae8fc;strokeColor=#6c8ebf;" vertex="1" parent="1">
          <mxGeometry x="124" y="421" width="226" height="429" as="geometry" />
        </mxCell>
        <mxCell id="0dInBAeZ58v6gxg7AQRT-13" value="&lt;p style=&quot;margin:0px;margin-top:4px;text-align:center;&quot;&gt;&lt;b&gt;StudentRegistrationRequest&lt;/b&gt;&lt;/p&gt;&lt;hr size=&quot;1&quot;/&gt;&lt;p style=&quot;margin:0 0 0 4px;line-height:1.6;&quot;&gt;- requestStatus: RequestStatus&lt;br/&gt;- requestType: RequestType&lt;br/&gt;- studentID: String&lt;br/&gt;- supervisorID: String&lt;br/&gt;- requestID: String&lt;br/&gt;- projectID: String&lt;br/&gt;- coordinatorID: String&lt;/p&gt;&lt;hr size=&quot;1&quot;/&gt;&lt;p style=&quot;margin:0 0 0 4px;line-height:1.6;&quot;&gt;+ getProjectID(): String&lt;br/&gt;+ getRequestType(): RequestType&lt;br/&gt;+ getStudentID(): String&lt;br/&gt;+ getStatus(): RequestStatus&lt;br/&gt;+ setCoordinatorID(String): void&lt;br/&gt;+ getCoordinatorID(): String&lt;br/&gt;+ getID(): String&lt;br/&gt;+ display(): void&lt;br/&gt;+ getSupervisorID(): String&lt;br/&gt;+ setStatus(RequestStatus): void&lt;/p&gt;" style="verticalAlign=top;align=left;overflow=fill;fontSize=14;fontFamily=Helvetica;html=1;rounded=0;shadow=0;comic=0;labelBackgroundColor=none;strokeWidth=1;fillColor=#dae8fc;strokeColor=#6c8ebf;" vertex="1" parent="1">
          <mxGeometry x="-114" y="421" width="224" height="429" as="geometry" />
        </mxCell>
        <mxCell id="0dInBAeZ58v6gxg7AQRT-14" value="&lt;p style=&quot;margin:0px;margin-top:4px;text-align:center;&quot;&gt;&lt;b&gt;TransferStudentRequest&lt;/b&gt;&lt;/p&gt;&lt;hr size=&quot;1&quot;/&gt;&lt;p style=&quot;margin:0 0 0 4px;line-height:1.6;&quot;&gt;- requestType: RequestType&lt;br/&gt;- supervisorID: String&lt;br/&gt;- studentID: String&lt;br/&gt;- coordinatorID: String&lt;br/&gt;- requestID: String&lt;br/&gt;- newSupervisorID: String&lt;br/&gt;- requestStatus: RequestStatus&lt;br/&gt;- projectID: String&lt;/p&gt;&lt;hr size=&quot;1&quot;/&gt;&lt;p style=&quot;margin:0 0 0 4px;line-height:1.6;&quot;&gt;+ getStudentID(): String&lt;br/&gt;+ getStatus(): RequestStatus&lt;br/&gt;+ display(): void&lt;br/&gt;+ setCoordinatorID(String): void&lt;br/&gt;+ getNewSupervisorID(): String&lt;br/&gt;+ getCoordinatorID(): String&lt;br/&gt;+ getID(): String&lt;br/&gt;+ setStatus(RequestStatus): void&lt;br/&gt;+ getRequestType(): RequestType&lt;br/&gt;+ getProjectID(): String&lt;br/&gt;+ getSupervisorID(): String&lt;br/&gt;+ setSupervisorID(String): void&lt;/p&gt;" style="verticalAlign=top;align=left;overflow=fill;fontSize=14;fontFamily=Helvetica;html=1;rounded=0;shadow=0;comic=0;labelBackgroundColor=none;strokeWidth=1;fillColor=#dae8fc;strokeColor=#6c8ebf;" vertex="1" parent="1">
          <mxGeometry x="370" y="379" width="220" height="501" as="geometry" />
        </mxCell>
        <mxCell id="0dInBAeZ58v6gxg7AQRT-15" value="" style="html=1;rounded=1;edgeStyle=orthogonalEdgeStyle;dashed=1;startArrow=none;endArrow=openThin;endSize=12;strokeColor=#595959;exitX=0.875;exitY=0.001;exitDx=0;exitDy=0;entryX=0.500;entryY=1.000;entryDx=0;entryDy=0;" edge="1" parent="1" source="0dInBAeZ58v6gxg7AQRT-8" target="0dInBAeZ58v6gxg7AQRT-11">
          <mxGeometry width="50" height="50" relative="1" as="geometry">
            <Array as="points">
              <mxPoint x="492" y="930" />
              <mxPoint x="708" y="930" />
            </Array>
          </mxGeometry>
        </mxCell>
        <mxCell id="0dInBAeZ58v6gxg7AQRT-16" value="«create»" style="edgeLabel;resizable=0;html=1;align=left;verticalAlign=top;strokeColor=default;" connectable="0" vertex="1" parent="0dInBAeZ58v6gxg7AQRT-15">
          <mxGeometry x="472" y="960" as="geometry" />
        </mxCell>
        <mxCell id="0dInBAeZ58v6gxg7AQRT-17" value="" style="html=1;rounded=1;edgeStyle=orthogonalEdgeStyle;dashed=1;startArrow=none;endArrow=openThin;endSize=12;strokeColor=#595959;exitX=0.375;exitY=0.001;exitDx=0;exitDy=0;entryX=0.515;entryY=1;entryDx=0;entryDy=0;entryPerimeter=0;" edge="1" parent="1" source="0dInBAeZ58v6gxg7AQRT-8" target="0dInBAeZ58v6gxg7AQRT-12">
          <mxGeometry width="50" height="50" relative="1" as="geometry">
            <Array as="points">
              <mxPoint x="337" y="910" />
              <mxPoint x="240" y="910" />
              <mxPoint x="240" y="850" />
            </Array>
          </mxGeometry>
        </mxCell>
        <mxCell id="0dInBAeZ58v6gxg7AQRT-18" value="«create»" style="edgeLabel;resizable=0;html=1;align=left;verticalAlign=top;strokeColor=default;" connectable="0" vertex="1" parent="0dInBAeZ58v6gxg7AQRT-17">
          <mxGeometry x="310" y="960" as="geometry" />
        </mxCell>
        <mxCell id="0dInBAeZ58v6gxg7AQRT-19" value="" style="html=1;rounded=1;edgeStyle=orthogonalEdgeStyle;dashed=1;startArrow=none;endArrow=openThin;endSize=12;strokeColor=#595959;exitX=0.125;exitY=0.001;exitDx=0;exitDy=0;" edge="1" parent="1" source="0dInBAeZ58v6gxg7AQRT-8" target="0dInBAeZ58v6gxg7AQRT-13">
          <mxGeometry width="50" height="50" relative="1" as="geometry">
            <Array as="points">
              <mxPoint x="260" y="930" />
              <mxPoint x="-5" y="930" />
            </Array>
          </mxGeometry>
        </mxCell>
        <mxCell id="0dInBAeZ58v6gxg7AQRT-20" value="«create»" style="edgeLabel;resizable=0;html=1;align=left;verticalAlign=top;strokeColor=default;" connectable="0" vertex="1" parent="0dInBAeZ58v6gxg7AQRT-19">
          <mxGeometry x="239" y="960" as="geometry" />
        </mxCell>
        <mxCell id="0dInBAeZ58v6gxg7AQRT-21" value="" style="html=1;rounded=1;edgeStyle=orthogonalEdgeStyle;dashed=1;startArrow=none;endArrow=openThin;endSize=12;strokeColor=#595959;exitX=0.625;exitY=0.001;exitDx=0;exitDy=0;" edge="1" parent="1" source="0dInBAeZ58v6gxg7AQRT-8" target="0dInBAeZ58v6gxg7AQRT-14">
          <mxGeometry width="50" height="50" relative="1" as="geometry">
            <Array as="points">
              <mxPoint x="415" y="910" />
              <mxPoint x="477" y="910" />
            </Array>
            <mxPoint x="480" y="870" as="targetPoint" />
          </mxGeometry>
        </mxCell>
        <mxCell id="0dInBAeZ58v6gxg7AQRT-22" value="«create»" style="edgeLabel;resizable=0;html=1;align=left;verticalAlign=top;strokeColor=default;" connectable="0" vertex="1" parent="0dInBAeZ58v6gxg7AQRT-21">
          <mxGeometry x="390" y="960" as="geometry" />
        </mxCell>
        <mxCell id="0dInBAeZ58v6gxg7AQRT-23" value="" style="html=1;rounded=1;edgeStyle=orthogonalEdgeStyle;dashed=1;startArrow=none;endArrow=block;endSize=12;strokeColor=#006EAF;exitX=0.167;exitY=0.000;exitDx=0;exitDy=0;fillColor=#1ba1e2;" edge="1" parent="1" source="0dInBAeZ58v6gxg7AQRT-11">
          <mxGeometry width="50" height="50" relative="1" as="geometry">
            <Array as="points">
              <mxPoint x="635" y="279" />
              <mxPoint x="186" y="279" />
            </Array>
            <mxPoint x="186" y="239" as="targetPoint" />
          </mxGeometry>
        </mxCell>
        <mxCell id="0dInBAeZ58v6gxg7AQRT-24" value="" style="html=1;rounded=1;edgeStyle=orthogonalEdgeStyle;dashed=0;startArrow=diamondThinstartSize=12;endArrow=openThin;endSize=12;strokeColor=#595959;exitX=0.833;exitY=0.000;exitDx=0;exitDy=0;" edge="1" parent="1" source="0dInBAeZ58v6gxg7AQRT-11" target="0dInBAeZ58v6gxg7AQRT-9">
          <mxGeometry width="50" height="50" relative="1" as="geometry">
            <Array as="points">
              <mxPoint x="781" y="259" />
              <mxPoint x="700" y="259" />
              <mxPoint x="700" y="196" />
            </Array>
            <mxPoint x="680" y="198" as="targetPoint" />
          </mxGeometry>
        </mxCell>
        <mxCell id="0dInBAeZ58v6gxg7AQRT-26" value="" style="edgeLabel;resizable=0;html=1;align=left;verticalAlign=top;strokeColor=default;" connectable="0" vertex="1" parent="0dInBAeZ58v6gxg7AQRT-24">
          <mxGeometry x="675" y="203" as="geometry" />
        </mxCell>
        <mxCell id="0dInBAeZ58v6gxg7AQRT-27" value="" style="html=1;rounded=1;edgeStyle=orthogonalEdgeStyle;dashed=0;startArrow=diamondThinstartSize=12;endArrow=openThin;endSize=12;strokeColor=#595959;exitX=0.500;exitY=0.000;exitDx=0;exitDy=0;entryX=0.875;entryY=1.000;entryDx=0;entryDy=0;" edge="1" parent="1">
          <mxGeometry width="50" height="50" relative="1" as="geometry">
            <Array as="points">
              <mxPoint x="709" y="269" />
              <mxPoint x="445" y="269" />
            </Array>
            <mxPoint x="709" y="379" as="sourcePoint" />
            <mxPoint x="444.375" y="212" as="targetPoint" />
          </mxGeometry>
        </mxCell>
        <mxCell id="0dInBAeZ58v6gxg7AQRT-31" value="" style="html=1;rounded=1;edgeStyle=orthogonalEdgeStyle;dashed=1;startArrow=none;endArrow=block;endSize=12;strokeColor=#006EAF;exitX=0.167;exitY=0.000;exitDx=0;exitDy=0;fillColor=#1ba1e2;" edge="1" parent="1" source="0dInBAeZ58v6gxg7AQRT-12">
          <mxGeometry width="50" height="50" relative="1" as="geometry">
            <Array as="points">
              <mxPoint x="162" y="309" />
              <mxPoint x="84" y="309" />
            </Array>
            <mxPoint x="84" y="239" as="targetPoint" />
          </mxGeometry>
        </mxCell>
        <mxCell id="0dInBAeZ58v6gxg7AQRT-32" value="" style="html=1;rounded=1;edgeStyle=orthogonalEdgeStyle;dashed=0;startArrow=diamondThinstartSize=12;endArrow=openThin;endSize=12;strokeColor=#595959;entryX=0.367;entryY=1.001;entryDx=0;entryDy=0;entryPerimeter=0;" edge="1" parent="1" target="0dInBAeZ58v6gxg7AQRT-9">
          <mxGeometry width="50" height="50" relative="1" as="geometry">
            <Array as="points">
              <mxPoint x="316" y="349" />
              <mxPoint x="600" y="349" />
            </Array>
            <mxPoint x="316" y="421" as="sourcePoint" />
            <mxPoint x="600" y="200" as="targetPoint" />
          </mxGeometry>
        </mxCell>
        <mxCell id="0dInBAeZ58v6gxg7AQRT-34" value="" style="edgeLabel;resizable=0;html=1;align=left;verticalAlign=top;strokeColor=default;" connectable="0" vertex="1" parent="0dInBAeZ58v6gxg7AQRT-32">
          <mxGeometry x="576" y="203" as="geometry" />
        </mxCell>
        <mxCell id="0dInBAeZ58v6gxg7AQRT-35" value="" style="html=1;rounded=1;edgeStyle=orthogonalEdgeStyle;dashed=0;startArrow=diamondThinstartSize=12;endArrow=openThin;endSize=12;strokeColor=#595959;" edge="1" parent="1" target="0dInBAeZ58v6gxg7AQRT-10">
          <mxGeometry width="50" height="50" relative="1" as="geometry">
            <Array as="points">
              <mxPoint x="239" y="329" />
              <mxPoint x="329" y="329" />
            </Array>
            <mxPoint x="239" y="421" as="sourcePoint" />
          </mxGeometry>
        </mxCell>
        <mxCell id="0dInBAeZ58v6gxg7AQRT-39" value="" style="html=1;rounded=1;edgeStyle=orthogonalEdgeStyle;dashed=1;startArrow=none;endArrow=block;endSize=12;strokeColor=#006EAF;entryX=0.108;entryY=1.004;entryDx=0;entryDy=0;fillColor=#1ba1e2;entryPerimeter=0;" edge="1" parent="1" target="0dInBAeZ58v6gxg7AQRT-7">
          <mxGeometry width="50" height="50" relative="1" as="geometry">
            <Array as="points">
              <mxPoint x="-78" y="309" />
              <mxPoint x="31" y="309" />
            </Array>
            <mxPoint x="-78" y="421" as="sourcePoint" />
          </mxGeometry>
        </mxCell>
        <mxCell id="0dInBAeZ58v6gxg7AQRT-40" value="" style="html=1;rounded=1;edgeStyle=orthogonalEdgeStyle;dashed=0;startArrow=diamondThinstartSize=12;endArrow=openThin;endSize=12;strokeColor=#595959;entryX=0.142;entryY=1.001;entryDx=0;entryDy=0;entryPerimeter=0;" edge="1" parent="1" target="0dInBAeZ58v6gxg7AQRT-9">
          <mxGeometry width="50" height="50" relative="1" as="geometry">
            <Array as="points">
              <mxPoint x="68" y="339" />
              <mxPoint x="551" y="339" />
            </Array>
            <mxPoint x="68" y="421" as="sourcePoint" />
            <mxPoint x="529" y="198" as="targetPoint" />
          </mxGeometry>
        </mxCell>
        <mxCell id="0dInBAeZ58v6gxg7AQRT-44" value="" style="html=1;rounded=1;edgeStyle=orthogonalEdgeStyle;dashed=0;startArrow=diamondThinstartSize=12;endArrow=openThin;endSize=12;strokeColor=#595959;" edge="1" parent="1" target="0dInBAeZ58v6gxg7AQRT-10">
          <mxGeometry width="50" height="50" relative="1" as="geometry">
            <Array as="points">
              <mxPoint x="-5" y="319" />
              <mxPoint x="272" y="319" />
            </Array>
            <mxPoint x="-5" y="421" as="sourcePoint" />
          </mxGeometry>
        </mxCell>
        <mxCell id="0dInBAeZ58v6gxg7AQRT-48" value="" style="html=1;rounded=1;edgeStyle=orthogonalEdgeStyle;dashed=1;startArrow=none;endArrow=block;endSize=12;strokeColor=#006EAF;exitX=0.167;exitY=0.000;exitDx=0;exitDy=0;fillColor=#1ba1e2;" edge="1" parent="1" source="0dInBAeZ58v6gxg7AQRT-14">
          <mxGeometry width="50" height="50" relative="1" as="geometry">
            <Array as="points">
              <mxPoint x="408" y="299" />
              <mxPoint x="135" y="299" />
            </Array>
            <mxPoint x="135" y="239" as="targetPoint" />
          </mxGeometry>
        </mxCell>
        <mxCell id="0dInBAeZ58v6gxg7AQRT-49" value="" style="html=1;rounded=1;edgeStyle=orthogonalEdgeStyle;dashed=0;startArrow=diamondThinstartSize=12;endArrow=openThin;endSize=12;strokeColor=#595959;exitX=0.833;exitY=0.000;exitDx=0;exitDy=0;" edge="1" parent="1" source="0dInBAeZ58v6gxg7AQRT-14">
          <mxGeometry width="50" height="50" relative="1" as="geometry">
            <Array as="points">
              <mxPoint x="553" y="359" />
              <mxPoint x="650" y="359" />
            </Array>
            <mxPoint x="650" y="210" as="targetPoint" />
          </mxGeometry>
        </mxCell>
        <mxCell id="0dInBAeZ58v6gxg7AQRT-51" value="" style="edgeLabel;resizable=0;html=1;align=left;verticalAlign=top;strokeColor=default;" connectable="0" vertex="1" parent="0dInBAeZ58v6gxg7AQRT-49">
          <mxGeometry x="625" y="229" as="geometry" />
        </mxCell>
        <mxCell id="0dInBAeZ58v6gxg7AQRT-52" value="" style="html=1;rounded=1;edgeStyle=orthogonalEdgeStyle;dashed=0;startArrow=diamondThinstartSize=12;endArrow=openThin;endSize=12;strokeColor=#595959;exitX=0.500;exitY=0.000;exitDx=0;exitDy=0;" edge="1" parent="1" source="0dInBAeZ58v6gxg7AQRT-14" target="0dInBAeZ58v6gxg7AQRT-10">
          <mxGeometry width="50" height="50" relative="1" as="geometry">
            <Array as="points">
              <mxPoint x="480" y="289" />
              <mxPoint x="390" y="289" />
            </Array>
          </mxGeometry>
        </mxCell>
        <mxCell id="0dInBAeZ58v6gxg7AQRT-63" value="&lt;p style=&quot;margin:0px;margin-top:4px;text-align:center;&quot;&gt;&lt;b&gt;Coordinator&lt;/b&gt;&lt;/p&gt;&lt;hr size=&quot;1&quot;/&gt;&lt;p style=&quot;margin:0 0 0 4px;line-height:1.6;&quot;&gt;- coordinatorID: String&lt;br/&gt;- coordinatorName: String&lt;br/&gt;- email: String&lt;br/&gt;- hashedPassword: String&lt;/p&gt;&lt;hr size=&quot;1&quot;/&gt;&lt;p style=&quot;margin:0 0 0 4px;line-height:1.6;&quot;&gt;+ getEmail(): String&lt;br/&gt;+ setCoordinatorID(String): void&lt;br/&gt;+ getUserName(): String&lt;br/&gt;+ setCoordinatorName(String): void&lt;br/&gt;+ setHashedPassword(String): void&lt;br/&gt;+ getID(): String&lt;br/&gt;+ getUser(Map&amp;lt;String, String&amp;gt;): User&lt;br/&gt;+ getHashedPassword(): String&lt;br/&gt;+ setEmail(String): void&lt;/p&gt;" style="verticalAlign=top;align=left;overflow=fill;fontSize=14;fontFamily=Helvetica;html=1;rounded=0;shadow=0;comic=0;labelBackgroundColor=none;strokeWidth=1;glass=1;fillColor=#dae8fc;strokeColor=#6c8ebf;gradientDirection=north;" vertex="1" parent="1">
          <mxGeometry x="867" y="421" width="240" height="342" as="geometry" />
        </mxCell>
        <mxCell id="0dInBAeZ58v6gxg7AQRT-64" value="&lt;p style=&quot;margin:0px;margin-top:4px;text-align:center;&quot;&gt;&lt;b&gt;Student&lt;/b&gt;&lt;/p&gt;&lt;hr size=&quot;1&quot;/&gt;&lt;p style=&quot;margin:0 0 0 4px;line-height:1.6;&quot;&gt;- projectID: String&lt;br/&gt;- hashedPassword: String&lt;br/&gt;- studentID: String&lt;br/&gt;- email: String&lt;br/&gt;- status: StudentStatus&lt;br/&gt;- studentName: String&lt;br/&gt;- supervisorID: String&lt;/p&gt;&lt;hr size=&quot;1&quot;/&gt;&lt;p style=&quot;margin:0 0 0 4px;line-height:1.6;&quot;&gt;+ getProjectID(): String&lt;br/&gt;+ getID(): String&lt;br/&gt;+ setStatus(StudentStatus): void&lt;br/&gt;+ setProjectID(String): void&lt;br/&gt;+ getUser(Map&amp;lt;String, String&amp;gt;): User&lt;br/&gt;+ getEmail(): String&lt;br/&gt;+ getStatus(): StudentStatus&lt;br/&gt;+ setSupervisorID(String): void&lt;br/&gt;+ getUserName(): String&lt;br/&gt;+ getSupervisorID(): String&lt;br/&gt;+ getHashedPassword(): String&lt;br/&gt;+ setHashedPassword(String): void&lt;/p&gt;" style="verticalAlign=top;align=left;overflow=fill;fontSize=14;fontFamily=Helvetica;html=1;rounded=0;shadow=0;comic=0;labelBackgroundColor=none;strokeWidth=1;fillColor=#dae8fc;strokeColor=#6c8ebf;" vertex="1" parent="1">
          <mxGeometry x="1387" y="351" width="240" height="486" as="geometry" />
        </mxCell>
        <mxCell id="0dInBAeZ58v6gxg7AQRT-65" value="&lt;p style=&quot;margin:0px;margin-top:4px;text-align:center;&quot;&gt;&lt;i&gt;&amp;lt;&amp;lt;enumeration&amp;gt;&amp;gt;&lt;/i&gt;&lt;br/&gt;&lt;b&gt;StudentStatus&lt;/b&gt;&lt;/p&gt;&lt;hr size=&quot;1&quot;/&gt;&lt;p style=&quot;margin:0 0 0 4px;line-height:1.6;&quot;&gt;+ UNREGISTERED: &lt;br/&gt;+ DEREGISTERED: &lt;br/&gt;+ REGISTERED: &lt;br/&gt;+ PENDING: &lt;/p&gt;&lt;hr size=&quot;1&quot;/&gt;&lt;p style=&quot;margin:0 0 0 4px;line-height:1.6;&quot;&gt;+ values(): StudentStatus[]&lt;br/&gt;+ valueOf(String): StudentStatus&lt;/p&gt;" style="verticalAlign=top;align=left;overflow=fill;fontSize=14;fontFamily=Helvetica;html=1;rounded=0;shadow=0;comic=0;labelBackgroundColor=none;strokeWidth=1;fillColor=#dae8fc;strokeColor=#6c8ebf;" vertex="1" parent="1">
          <mxGeometry x="1419" y="97" width="208" height="204" as="geometry" />
        </mxCell>
        <mxCell id="0dInBAeZ58v6gxg7AQRT-66" value="&lt;p style=&quot;margin:0px;margin-top:4px;text-align:center;&quot;&gt;&lt;b&gt;Supervisor&lt;/b&gt;&lt;/p&gt;&lt;hr size=&quot;1&quot;/&gt;&lt;p style=&quot;margin:0 0 0 4px;line-height:1.6;&quot;&gt;- supervisorID: String&lt;br/&gt;- supervisorName: String&lt;br/&gt;- email: String&lt;br/&gt;- numOfSupervisingProject: Integer&lt;br/&gt;- hashedPassword: String&lt;/p&gt;&lt;hr size=&quot;1&quot;/&gt;&lt;p style=&quot;margin:0 0 0 4px;line-height:1.6;&quot;&gt;+ getUser(Map&amp;lt;String, String&amp;gt;): User&lt;br/&gt;+ getNumOfSupervisingProject(): int&lt;br/&gt;+ getID(): String&lt;br/&gt;+ getHashedPassword(): String&lt;br/&gt;+ getEmail(): String&lt;br/&gt;+ decNumOfSupervisingProject(): void&lt;br/&gt;+ getUserName(): String&lt;br/&gt;+ setHashedPassword(String): void&lt;br/&gt;+ incNumOfSupervisingProject(): void&lt;/p&gt;" style="verticalAlign=top;align=left;overflow=fill;fontSize=14;fontFamily=Helvetica;html=1;rounded=0;shadow=0;comic=0;labelBackgroundColor=none;strokeWidth=1;fillColor=#dae8fc;strokeColor=#6c8ebf;" vertex="1" parent="1">
          <mxGeometry x="1124" y="421" width="243" height="376" as="geometry" />
        </mxCell>
        <mxCell id="0dInBAeZ58v6gxg7AQRT-67" value="&lt;p style=&quot;margin:0px;margin-top:4px;text-align:center;&quot;&gt;&lt;i&gt;&amp;lt;&amp;lt;interface&amp;gt;&amp;gt;&lt;/i&gt;&lt;br/&gt;&lt;b&gt;User&lt;/b&gt;&lt;/p&gt;&lt;hr size=&quot;1&quot;/&gt;&lt;p style=&quot;margin:0 0 0 4px;line-height:1.6;&quot;&gt;+ getID(): String&lt;br/&gt;+ getEmail(): String&lt;br/&gt;+ checkUsername(String): boolean&lt;br/&gt;+ setHashedPassword(String): void&lt;br/&gt;+ getUserName(): String&lt;br/&gt;+ getHashedPassword(): String&lt;/p&gt;" style="verticalAlign=top;align=left;overflow=fill;fontSize=14;fontFamily=Helvetica;html=1;rounded=0;shadow=0;comic=0;labelBackgroundColor=none;strokeWidth=1;fillColor=#dae8fc;strokeColor=#6c8ebf;" vertex="1" parent="1">
          <mxGeometry x="1108" y="97" width="229" height="184" as="geometry" />
        </mxCell>
        <mxCell id="0dInBAeZ58v6gxg7AQRT-68" value="&lt;p style=&quot;margin:0px;margin-top:4px;text-align:center;&quot;&gt;&lt;b&gt;UserFactory&lt;/b&gt;&lt;/p&gt;&lt;hr size=&quot;1&quot;/&gt;&lt;p style=&quot;margin:0 0 0 4px;line-height:1.6;&quot;&gt;+ create(UserType, String, String, String, String): User&lt;/p&gt;" style="verticalAlign=top;align=left;overflow=fill;fontSize=14;fontFamily=Helvetica;html=1;rounded=0;shadow=0;comic=0;labelBackgroundColor=none;strokeWidth=1;fillColor=#dae8fc;strokeColor=#6c8ebf;" vertex="1" parent="1">
          <mxGeometry x="1073.75" y="907" width="343.5" height="59" as="geometry" />
        </mxCell>
        <mxCell id="0dInBAeZ58v6gxg7AQRT-69" value="&lt;p style=&quot;margin:0px;margin-top:4px;text-align:center;&quot;&gt;&lt;i&gt;&amp;lt;&amp;lt;enumeration&amp;gt;&amp;gt;&lt;/i&gt;&lt;br/&gt;&lt;b&gt;UserType&lt;/b&gt;&lt;/p&gt;&lt;hr size=&quot;1&quot;/&gt;&lt;p style=&quot;margin:0 0 0 4px;line-height:1.6;&quot;&gt;+ STUDENT: &lt;br/&gt;+ COORDINATOR: &lt;br/&gt;+ FACULTY: &lt;/p&gt;&lt;hr size=&quot;1&quot;/&gt;&lt;p style=&quot;margin:0 0 0 4px;line-height:1.6;&quot;&gt;+ values(): UserType[]&lt;br/&gt;+ valueOf(String): UserType&lt;/p&gt;" style="verticalAlign=top;align=left;overflow=fill;fontSize=14;fontFamily=Helvetica;html=1;rounded=0;shadow=0;comic=0;labelBackgroundColor=none;strokeWidth=1;fillColor=#dae8fc;strokeColor=#6c8ebf;" vertex="1" parent="1">
          <mxGeometry x="867" y="97" width="187" height="182" as="geometry" />
        </mxCell>
        <mxCell id="0dInBAeZ58v6gxg7AQRT-70" value="" style="html=1;rounded=1;edgeStyle=orthogonalEdgeStyle;dashed=1;startArrow=none;endArrow=block;endSize=12;strokeColor=#006EAF;fillColor=#1ba1e2;" edge="1" parent="1" target="0dInBAeZ58v6gxg7AQRT-67">
          <mxGeometry width="50" height="50" relative="1" as="geometry">
            <Array as="points">
              <mxPoint x="992" y="326" />
              <mxPoint x="1143" y="326" />
            </Array>
            <mxPoint x="992" y="421" as="sourcePoint" />
          </mxGeometry>
        </mxCell>
        <mxCell id="0dInBAeZ58v6gxg7AQRT-71" value="" style="html=1;rounded=1;edgeStyle=orthogonalEdgeStyle;dashed=0;startArrow=diamondThinstartSize=12;endArrow=openThin;endSize=12;strokeColor=#595959;exitX=0.649;exitY=0;exitDx=0;exitDy=0;entryX=0.500;entryY=1.000;entryDx=0;entryDy=0;exitPerimeter=0;" edge="1" parent="1" source="0dInBAeZ58v6gxg7AQRT-64" target="0dInBAeZ58v6gxg7AQRT-65">
          <mxGeometry width="50" height="50" relative="1" as="geometry">
            <Array as="points">
              <mxPoint x="1543" y="330" />
              <mxPoint x="1523" y="330" />
            </Array>
          </mxGeometry>
        </mxCell>
        <mxCell id="0dInBAeZ58v6gxg7AQRT-73" value="1" style="edgeLabel;resizable=0;html=1;align=left;verticalAlign=top;strokeColor=default;" connectable="0" vertex="1" parent="0dInBAeZ58v6gxg7AQRT-71">
          <mxGeometry x="578" y="211" as="geometry" />
        </mxCell>
        <mxCell id="0dInBAeZ58v6gxg7AQRT-75" value="" style="html=1;rounded=1;edgeStyle=orthogonalEdgeStyle;dashed=1;startArrow=none;endArrow=block;endSize=12;strokeColor=#006EAF;exitX=0.250;exitY=0.000;exitDx=0;exitDy=0;entryX=0.833;entryY=1.000;entryDx=0;entryDy=0;fillColor=#1ba1e2;" edge="1" parent="1" source="0dInBAeZ58v6gxg7AQRT-64" target="0dInBAeZ58v6gxg7AQRT-67">
          <mxGeometry width="50" height="50" relative="1" as="geometry">
            <Array as="points">
              <mxPoint x="1425" y="326" />
              <mxPoint x="1283" y="326" />
            </Array>
          </mxGeometry>
        </mxCell>
        <mxCell id="0dInBAeZ58v6gxg7AQRT-76" value="" style="html=1;rounded=1;edgeStyle=orthogonalEdgeStyle;dashed=1;startArrow=none;endArrow=block;endSize=12;strokeColor=#006EAF;entryX=0.500;entryY=1.000;entryDx=0;entryDy=0;fillColor=#1ba1e2;" edge="1" parent="1" target="0dInBAeZ58v6gxg7AQRT-67">
          <mxGeometry width="50" height="50" relative="1" as="geometry">
            <Array as="points">
              <mxPoint x="1223" y="421" />
              <mxPoint x="1223" y="374" />
            </Array>
            <mxPoint x="1223" y="421" as="sourcePoint" />
          </mxGeometry>
        </mxCell>
        <mxCell id="0dInBAeZ58v6gxg7AQRT-77" value="" style="html=1;rounded=1;edgeStyle=orthogonalEdgeStyle;dashed=1;startArrow=none;endArrow=openThin;endSize=12;strokeColor=#595959;exitX=0.205;exitY=0;exitDx=0;exitDy=0;exitPerimeter=0;" edge="1" parent="1" source="0dInBAeZ58v6gxg7AQRT-68" target="0dInBAeZ58v6gxg7AQRT-63">
          <mxGeometry width="50" height="50" relative="1" as="geometry">
            <Array as="points">
              <mxPoint x="1144" y="857" />
              <mxPoint x="985" y="857" />
            </Array>
          </mxGeometry>
        </mxCell>
        <mxCell id="0dInBAeZ58v6gxg7AQRT-83" value="&amp;lt;&amp;lt; create &amp;gt;&amp;gt;" style="edgeLabel;html=1;align=center;verticalAlign=middle;resizable=0;points=[];" connectable="0" vertex="1" parent="0dInBAeZ58v6gxg7AQRT-77">
          <mxGeometry x="0.6005" y="2" relative="1" as="geometry">
            <mxPoint x="64" y="23" as="offset" />
          </mxGeometry>
        </mxCell>
        <mxCell id="0dInBAeZ58v6gxg7AQRT-79" value="" style="html=1;rounded=1;edgeStyle=orthogonalEdgeStyle;dashed=1;startArrow=none;endArrow=openThin;endSize=12;strokeColor=#595959;entryX=0.500;entryY=1.000;entryDx=0;entryDy=0;" edge="1" parent="1" source="0dInBAeZ58v6gxg7AQRT-68" target="0dInBAeZ58v6gxg7AQRT-64">
          <mxGeometry width="50" height="50" relative="1" as="geometry">
            <Array as="points">
              <mxPoint x="1347" y="857" />
              <mxPoint x="1507" y="857" />
            </Array>
          </mxGeometry>
        </mxCell>
        <mxCell id="0dInBAeZ58v6gxg7AQRT-85" value="&amp;lt;&amp;lt; create &amp;gt;&amp;gt;" style="edgeLabel;html=1;align=center;verticalAlign=middle;resizable=0;points=[];" connectable="0" vertex="1" parent="0dInBAeZ58v6gxg7AQRT-79">
          <mxGeometry x="-0.176" relative="1" as="geometry">
            <mxPoint x="27" y="-10" as="offset" />
          </mxGeometry>
        </mxCell>
        <mxCell id="0dInBAeZ58v6gxg7AQRT-81" value="" style="html=1;rounded=1;edgeStyle=orthogonalEdgeStyle;dashed=1;startArrow=none;endArrow=openThin;endSize=12;strokeColor=#595959;entryX=0.512;entryY=1.000;entryDx=0;entryDy=0;" edge="1" parent="1" target="0dInBAeZ58v6gxg7AQRT-66">
          <mxGeometry width="50" height="50" relative="1" as="geometry">
            <Array as="points">
              <mxPoint x="1248" y="907" />
            </Array>
            <mxPoint x="1248" y="907" as="sourcePoint" />
          </mxGeometry>
        </mxCell>
        <mxCell id="0dInBAeZ58v6gxg7AQRT-84" value="&amp;lt;&amp;lt; create &amp;gt;&amp;gt;" style="edgeLabel;html=1;align=center;verticalAlign=middle;resizable=0;points=[];" connectable="0" vertex="1" parent="0dInBAeZ58v6gxg7AQRT-81">
          <mxGeometry x="-0.1578" y="-1" relative="1" as="geometry">
            <mxPoint as="offset" />
          </mxGeometry>
        </mxCell>
        <mxCell id="0dInBAeZ58v6gxg7AQRT-89" value="&lt;p style=&quot;margin:0px;margin-top:4px;text-align:center;&quot;&gt;&lt;b&gt;ProjectRepository&lt;/b&gt;&lt;/p&gt;&lt;hr size=&quot;1&quot;/&gt;&lt;p style=&quot;margin:0 0 0 4px;line-height:1.6;&quot;&gt;- FILE_PATH: String&lt;/p&gt;&lt;hr size=&quot;1&quot;/&gt;&lt;p style=&quot;margin:0 0 0 4px;line-height:1.6;&quot;&gt;+ getInstance(): ProjectRepository&lt;br/&gt;+ getFilePath(): String&lt;br/&gt;+ setAll(List&amp;lt;Map&amp;lt;String, String&amp;gt;&amp;gt;): void&lt;/p&gt;" style="verticalAlign=top;align=left;overflow=fill;fontSize=14;fontFamily=Helvetica;html=1;rounded=0;shadow=0;comic=0;labelBackgroundColor=none;strokeWidth=1;fillColor=#dae8fc;strokeColor=#6c8ebf;" vertex="1" parent="1">
          <mxGeometry x="-390" y="-160" width="258" height="140" as="geometry" />
        </mxCell>
        <mxCell id="0dInBAeZ58v6gxg7AQRT-94" value="" style="endArrow=diamondThin;endFill=0;endSize=24;html=1;rounded=0;entryX=0.5;entryY=1;entryDx=0;entryDy=0;exitX=0.75;exitY=0;exitDx=0;exitDy=0;edgeStyle=orthogonalEdgeStyle;" edge="1" parent="1" source="0dInBAeZ58v6gxg7AQRT-1" target="0dInBAeZ58v6gxg7AQRT-89">
          <mxGeometry width="160" relative="1" as="geometry">
            <mxPoint x="-130" y="160" as="sourcePoint" />
            <mxPoint x="30" y="160" as="targetPoint" />
            <Array as="points">
              <mxPoint x="-210" y="330" />
              <mxPoint x="-120" y="330" />
              <mxPoint x="-120" y="60" />
              <mxPoint x="-261" y="60" />
            </Array>
          </mxGeometry>
        </mxCell>
        <mxCell id="0dInBAeZ58v6gxg7AQRT-95" value="0 ... N" style="edgeLabel;html=1;align=center;verticalAlign=middle;resizable=0;points=[];" connectable="0" vertex="1" parent="0dInBAeZ58v6gxg7AQRT-94">
          <mxGeometry x="-0.9324" y="-1" relative="1" as="geometry">
            <mxPoint x="19" y="12" as="offset" />
          </mxGeometry>
        </mxCell>
        <mxCell id="0dInBAeZ58v6gxg7AQRT-96" value="&lt;p style=&quot;margin:0px;margin-top:4px;text-align:center;&quot;&gt;&lt;b&gt;RequestRepository&lt;/b&gt;&lt;/p&gt;&lt;hr size=&quot;1&quot;/&gt;&lt;p style=&quot;margin:0 0 0 4px;line-height:1.6;&quot;&gt;- FILE_PATH: String&lt;/p&gt;&lt;hr size=&quot;1&quot;/&gt;&lt;p style=&quot;margin:0 0 0 4px;line-height:1.6;&quot;&gt;+ getInstance(): RequestRepository&lt;br/&gt;+ getFilePath(): String&lt;br/&gt;+ setAll(List&amp;lt;Map&amp;lt;String, String&amp;gt;&amp;gt;): void&lt;/p&gt;" style="verticalAlign=top;align=left;overflow=fill;fontSize=14;fontFamily=Helvetica;html=1;rounded=0;shadow=0;comic=0;labelBackgroundColor=none;strokeWidth=1;fillColor=#dae8fc;strokeColor=#6c8ebf;" vertex="1" parent="1">
          <mxGeometry x="140" y="-160" width="261" height="140" as="geometry" />
        </mxCell>
        <mxCell id="0dInBAeZ58v6gxg7AQRT-99" value="" style="endArrow=diamondThin;endFill=0;endSize=24;html=1;rounded=0;entryX=0;entryY=0.5;entryDx=0;entryDy=0;exitX=0.25;exitY=0;exitDx=0;exitDy=0;edgeStyle=orthogonalEdgeStyle;" edge="1" parent="1" source="0dInBAeZ58v6gxg7AQRT-7" target="0dInBAeZ58v6gxg7AQRT-96">
          <mxGeometry width="160" relative="1" as="geometry">
            <mxPoint x="-140" y="-50" as="sourcePoint" />
            <mxPoint x="20" y="-50" as="targetPoint" />
          </mxGeometry>
        </mxCell>
        <mxCell id="0dInBAeZ58v6gxg7AQRT-100" value="0 ... N" style="edgeLabel;html=1;align=center;verticalAlign=middle;resizable=0;points=[];" connectable="0" vertex="1" parent="0dInBAeZ58v6gxg7AQRT-99">
          <mxGeometry x="-0.8834" y="3" relative="1" as="geometry">
            <mxPoint x="-20" as="offset" />
          </mxGeometry>
        </mxCell>
        <mxCell id="0dInBAeZ58v6gxg7AQRT-103" value="" style="html=1;rounded=1;edgeStyle=orthogonalEdgeStyle;dashed=0;startArrow=diamondThinstartSize=12;endArrow=openThin;endSize=12;strokeColor=#595959;exitX=0.25;exitY=0;exitDx=0;exitDy=0;entryX=0.25;entryY=1;entryDx=0;entryDy=0;" edge="1" parent="1" source="0dInBAeZ58v6gxg7AQRT-63" target="0dInBAeZ58v6gxg7AQRT-69">
          <mxGeometry width="50" height="50" relative="1" as="geometry">
            <Array as="points">
              <mxPoint x="927" y="361" />
              <mxPoint x="914" y="361" />
            </Array>
            <mxPoint x="1553" y="361" as="sourcePoint" />
            <mxPoint x="1533" y="311" as="targetPoint" />
          </mxGeometry>
        </mxCell>
        <mxCell id="0dInBAeZ58v6gxg7AQRT-105" value="" style="html=1;rounded=1;edgeStyle=orthogonalEdgeStyle;dashed=0;startArrow=diamondThinstartSize=12;endArrow=openThin;endSize=12;strokeColor=#595959;exitX=0.25;exitY=0;exitDx=0;exitDy=0;entryX=0.5;entryY=1;entryDx=0;entryDy=0;" edge="1" parent="1" source="0dInBAeZ58v6gxg7AQRT-66" target="0dInBAeZ58v6gxg7AQRT-69">
          <mxGeometry width="50" height="50" relative="1" as="geometry">
            <Array as="points">
              <mxPoint x="1185" y="371" />
              <mxPoint x="960" y="371" />
            </Array>
            <mxPoint x="937" y="431" as="sourcePoint" />
            <mxPoint x="924" y="289" as="targetPoint" />
          </mxGeometry>
        </mxCell>
        <mxCell id="0dInBAeZ58v6gxg7AQRT-107" value="" style="html=1;rounded=1;edgeStyle=orthogonalEdgeStyle;dashed=0;startArrow=diamondThinstartSize=12;endArrow=openThin;endSize=12;strokeColor=#595959;exitX=0;exitY=0;exitDx=0;exitDy=0;entryX=0.75;entryY=1;entryDx=0;entryDy=0;" edge="1" parent="1" source="0dInBAeZ58v6gxg7AQRT-64" target="0dInBAeZ58v6gxg7AQRT-69">
          <mxGeometry width="50" height="50" relative="1" as="geometry">
            <Array as="points">
              <mxPoint x="1007" y="351" />
            </Array>
            <mxPoint x="947" y="441" as="sourcePoint" />
            <mxPoint x="934" y="299" as="targetPoint" />
          </mxGeometry>
        </mxCell>
        <mxCell id="0dInBAeZ58v6gxg7AQRT-109" value="&lt;p style=&quot;margin:0px;margin-top:4px;text-align:center;&quot;&gt;&lt;b&gt;CoordinatorRepository&lt;/b&gt;&lt;/p&gt;&lt;hr size=&quot;1&quot;/&gt;&lt;p style=&quot;margin:0 0 0 4px;line-height:1.6;&quot;&gt;- FILE_PATH: String&lt;/p&gt;&lt;hr size=&quot;1&quot;/&gt;&lt;p style=&quot;margin:0 0 0 4px;line-height:1.6;&quot;&gt;+ getInstance(): CoordinatorRepository&lt;br/&gt;+ getFilePath(): String&lt;br/&gt;+ setAll(List&amp;lt;Map&amp;lt;String, String&amp;gt;&amp;gt;): void&lt;/p&gt;" style="verticalAlign=top;align=left;overflow=fill;fontSize=14;fontFamily=Helvetica;html=1;rounded=0;shadow=0;comic=0;labelBackgroundColor=none;strokeWidth=1;fillColor=#dae8fc;strokeColor=#6c8ebf;" vertex="1" parent="1">
          <mxGeometry x="760" y="-164" width="262" height="140" as="geometry" />
        </mxCell>
        <mxCell id="0dInBAeZ58v6gxg7AQRT-110" value="&lt;p style=&quot;margin:0px;margin-top:4px;text-align:center;&quot;&gt;&lt;b&gt;FacultyRepository&lt;/b&gt;&lt;/p&gt;&lt;hr size=&quot;1&quot;/&gt;&lt;p style=&quot;margin:0 0 0 4px;line-height:1.6;&quot;&gt;- FILE_PATH: String&lt;/p&gt;&lt;hr size=&quot;1&quot;/&gt;&lt;p style=&quot;margin:0 0 0 4px;line-height:1.6;&quot;&gt;+ getInstance(): FacultyRepository&lt;br/&gt;+ setAll(List&amp;lt;Map&amp;lt;String, String&amp;gt;&amp;gt;): void&lt;br/&gt;+ getFilePath(): String&lt;/p&gt;" style="verticalAlign=top;align=left;overflow=fill;fontSize=14;fontFamily=Helvetica;html=1;rounded=0;shadow=0;comic=0;labelBackgroundColor=none;strokeWidth=1;fillColor=#dae8fc;strokeColor=#6c8ebf;" vertex="1" parent="1">
          <mxGeometry x="1140" y="-162" width="262" height="140" as="geometry" />
        </mxCell>
        <mxCell id="0dInBAeZ58v6gxg7AQRT-111" value="&lt;p style=&quot;margin:0px;margin-top:4px;text-align:center;&quot;&gt;&lt;b&gt;StudentRepository&lt;/b&gt;&lt;/p&gt;&lt;hr size=&quot;1&quot;/&gt;&lt;p style=&quot;margin:0 0 0 4px;line-height:1.6;&quot;&gt;- FILE_PATH: String&lt;/p&gt;&lt;hr size=&quot;1&quot;/&gt;&lt;p style=&quot;margin:0 0 0 4px;line-height:1.6;&quot;&gt;+ setAll(List&amp;lt;Map&amp;lt;String, String&amp;gt;&amp;gt;): void&lt;br/&gt;+ getInstance(): StudentRepository&lt;br/&gt;+ getFilePath(): String&lt;/p&gt;" style="verticalAlign=top;align=left;overflow=fill;fontSize=14;fontFamily=Helvetica;html=1;rounded=0;shadow=0;comic=0;labelBackgroundColor=none;strokeWidth=1;fillColor=#dae8fc;strokeColor=#6c8ebf;" vertex="1" parent="1">
          <mxGeometry x="1440" y="-162" width="262" height="138" as="geometry" />
        </mxCell>
        <mxCell id="0dInBAeZ58v6gxg7AQRT-112" value="" style="endArrow=diamondThin;endFill=0;endSize=24;html=1;rounded=0;entryX=0.75;entryY=1;entryDx=0;entryDy=0;exitX=0.75;exitY=0;exitDx=0;exitDy=0;edgeStyle=orthogonalEdgeStyle;" edge="1" parent="1" source="0dInBAeZ58v6gxg7AQRT-63" target="0dInBAeZ58v6gxg7AQRT-109">
          <mxGeometry width="160" relative="1" as="geometry">
            <mxPoint x="1090" y="180" as="sourcePoint" />
            <mxPoint x="1250" y="180" as="targetPoint" />
            <Array as="points">
              <mxPoint x="1047" y="390" />
              <mxPoint x="1080" y="390" />
              <mxPoint x="1080" y="70" />
              <mxPoint x="957" y="70" />
            </Array>
          </mxGeometry>
        </mxCell>
        <mxCell id="0dInBAeZ58v6gxg7AQRT-113" value="0 ... N" style="edgeLabel;html=1;align=center;verticalAlign=middle;resizable=0;points=[];" connectable="0" vertex="1" parent="0dInBAeZ58v6gxg7AQRT-112">
          <mxGeometry x="-0.968" relative="1" as="geometry">
            <mxPoint x="20" y="-6" as="offset" />
          </mxGeometry>
        </mxCell>
        <mxCell id="0dInBAeZ58v6gxg7AQRT-114" value="" style="endArrow=diamondThin;endFill=0;endSize=24;html=1;rounded=0;entryX=0.5;entryY=1;entryDx=0;entryDy=0;exitX=0.75;exitY=0;exitDx=0;exitDy=0;edgeStyle=orthogonalEdgeStyle;" edge="1" parent="1" source="0dInBAeZ58v6gxg7AQRT-66" target="0dInBAeZ58v6gxg7AQRT-110">
          <mxGeometry width="160" relative="1" as="geometry">
            <mxPoint x="1380" y="240" as="sourcePoint" />
            <mxPoint x="1070" y="90" as="targetPoint" />
            <Array as="points">
              <mxPoint x="1306" y="380" />
              <mxPoint x="1370" y="380" />
              <mxPoint x="1370" y="70" />
              <mxPoint x="1271" y="70" />
            </Array>
          </mxGeometry>
        </mxCell>
        <mxCell id="0dInBAeZ58v6gxg7AQRT-115" value="0 ... N" style="edgeLabel;html=1;align=center;verticalAlign=middle;resizable=0;points=[];" connectable="0" vertex="1" parent="0dInBAeZ58v6gxg7AQRT-114">
          <mxGeometry x="-0.9618" relative="1" as="geometry">
            <mxPoint x="20" y="-2" as="offset" />
          </mxGeometry>
        </mxCell>
        <mxCell id="0dInBAeZ58v6gxg7AQRT-116" value="" style="endArrow=diamondThin;endFill=0;endSize=24;html=1;rounded=0;entryX=0.5;entryY=1;entryDx=0;entryDy=0;exitX=0.75;exitY=0;exitDx=0;exitDy=0;edgeStyle=orthogonalEdgeStyle;" edge="1" parent="1" source="0dInBAeZ58v6gxg7AQRT-64" target="0dInBAeZ58v6gxg7AQRT-111">
          <mxGeometry width="160" relative="1" as="geometry">
            <mxPoint x="1600" y="310" as="sourcePoint" />
            <mxPoint x="1760" y="310" as="targetPoint" />
            <Array as="points">
              <mxPoint x="1567" y="320" />
              <mxPoint x="1660" y="320" />
              <mxPoint x="1660" y="60" />
              <mxPoint x="1571" y="60" />
            </Array>
          </mxGeometry>
        </mxCell>
        <mxCell id="0dInBAeZ58v6gxg7AQRT-117" value="0 ... N" style="edgeLabel;html=1;align=center;verticalAlign=middle;resizable=0;points=[];" connectable="0" vertex="1" parent="0dInBAeZ58v6gxg7AQRT-116">
          <mxGeometry x="-0.8288" y="-1" relative="1" as="geometry">
            <mxPoint x="2" y="15" as="offset" />
          </mxGeometry>
        </mxCell>
        <mxCell id="0dInBAeZ58v6gxg7AQRT-122" value="&lt;p style=&quot;margin:0px;margin-top:4px;text-align:center;&quot;&gt;&lt;i&gt;&amp;lt;&amp;lt;interface&amp;gt;&amp;gt;&lt;/i&gt;&lt;br/&gt;&lt;b&gt;Mappable&lt;/b&gt;&lt;/p&gt;&lt;hr size=&quot;1&quot;/&gt;&lt;p style=&quot;margin:0 0 0 4px;line-height:1.6;&quot;&gt;+ fromMap(Map&amp;lt;String, String&amp;gt;): void&lt;br/&gt;+ toMap(): Map&amp;lt;String, String&amp;gt;&lt;/p&gt;" style="verticalAlign=top;align=left;overflow=fill;fontSize=14;fontFamily=Helvetica;html=1;rounded=0;shadow=0;comic=0;labelBackgroundColor=none;strokeWidth=1;fillColor=#dae8fc;strokeColor=#6c8ebf;" vertex="1" parent="1">
          <mxGeometry x="401" y="-1050" width="271" height="109" as="geometry" />
        </mxCell>
        <mxCell id="0dInBAeZ58v6gxg7AQRT-123" value="&lt;p style=&quot;margin:0px;margin-top:4px;text-align:center;&quot;&gt;&lt;i&gt;&amp;lt;&amp;lt;interface&amp;gt;&amp;gt;&lt;/i&gt;&lt;br&gt;&lt;b&gt;Model&lt;/b&gt;&lt;/p&gt;&lt;hr size=&quot;1&quot;&gt;&lt;p style=&quot;margin:0 0 0 4px;line-height:1.6;&quot;&gt;+ getID: String&lt;/p&gt;" style="verticalAlign=top;align=left;overflow=fill;fontSize=14;fontFamily=Helvetica;html=1;rounded=0;shadow=0;comic=0;labelBackgroundColor=none;strokeWidth=1;fillColor=#dae8fc;strokeColor=#6c8ebf;" vertex="1" parent="1">
          <mxGeometry x="846" y="-476" width="101" height="79" as="geometry" />
        </mxCell>
        <mxCell id="0dInBAeZ58v6gxg7AQRT-124" value="&lt;p style=&quot;margin:0px;margin-top:4px;text-align:center;&quot;&gt;&lt;b&gt;Repository&lt;ModelObject&gt;&lt;/b&gt;&lt;/p&gt;&lt;hr size=&quot;1&quot;/&gt;&lt;p style=&quot;margin:0 0 0 4px;line-height:1.6;&quot;&gt;+ Repository(): &lt;/p&gt;&lt;hr size=&quot;1&quot;/&gt;&lt;p style=&quot;margin:0 0 0 4px;line-height:1.6;&quot;&gt;+ getByID(String): ModelObject&lt;br/&gt;+ save(): void&lt;br/&gt;+ add(ModelObject): void&lt;br/&gt;+ size(): int&lt;br/&gt;+ load(): void&lt;br/&gt;+ remove(String): void&lt;br/&gt;+ iterator(): Iterator&amp;lt;ModelObject&amp;gt;&lt;br/&gt;+ updateAll(List&amp;lt;ModelObject&amp;gt;): void&lt;br/&gt;+ update(ModelObject): void&lt;br/&gt;+ findByRules(RepositoryRule&amp;lt;ModelObject&amp;gt;[]): List&amp;lt;ModelObject&amp;gt;&lt;br/&gt;+ contains(String): boolean&lt;br/&gt;+ clear(): void&lt;/p&gt;&lt;hr size=&quot;1&quot;/&gt;&lt;p style=&quot;margin:0 0 0 4px;line-height:1.6;&quot;&gt; filePath: String&lt;br/&gt; empty: boolean&lt;br/&gt; all: List&amp;lt;ModelObject&amp;gt;&lt;br/&gt; list: List&amp;lt;ModelObject&amp;gt;&lt;/p&gt;" style="verticalAlign=top;align=left;overflow=fill;fontSize=14;fontFamily=Helvetica;html=1;rounded=0;shadow=0;comic=0;labelBackgroundColor=none;strokeWidth=1;fillColor=#dae8fc;strokeColor=#6c8ebf;" vertex="1" parent="1">
          <mxGeometry x="83" y="-846" width="457" height="449" as="geometry" />
        </mxCell>
        <mxCell id="0dInBAeZ58v6gxg7AQRT-125" value="&lt;p style=&quot;margin:0px;margin-top:4px;text-align:center;&quot;&gt;&lt;i&gt;&amp;lt;&amp;lt;interface&amp;gt;&amp;gt;&lt;/i&gt;&lt;br/&gt;&lt;b&gt;RepositoryRule&lt;ModelObject&gt;&lt;/b&gt;&lt;/p&gt;&lt;hr size=&quot;1&quot;/&gt;&lt;p style=&quot;margin:0 0 0 4px;line-height:1.6;&quot;&gt;+ isMatch(ModelObject): boolean&lt;/p&gt;" style="verticalAlign=top;align=left;overflow=fill;fontSize=14;fontFamily=Helvetica;html=1;rounded=0;shadow=0;comic=0;labelBackgroundColor=none;strokeWidth=1;fillColor=#dae8fc;strokeColor=#6c8ebf;" vertex="1" parent="1">
          <mxGeometry x="-281" y="-661" width="288" height="79" as="geometry" />
        </mxCell>
        <mxCell id="0dInBAeZ58v6gxg7AQRT-126" value="&lt;p style=&quot;margin:0px;margin-top:4px;text-align:center;&quot;&gt;&lt;b&gt;Savable&lt;MappableObject&gt;&lt;/b&gt;&lt;/p&gt;&lt;hr size=&quot;1&quot;/&gt;&lt;p style=&quot;margin:0 0 0 4px;line-height:1.6;&quot;&gt;+ Savable(): &lt;/p&gt;&lt;hr size=&quot;1&quot;/&gt;&lt;p style=&quot;margin:0 0 0 4px;line-height:1.6;&quot;&gt;# save(String): void&lt;br/&gt;# load(String): void&lt;/p&gt;&lt;hr size=&quot;1&quot;/&gt;&lt;p style=&quot;margin:0 0 0 4px;line-height:1.6;&quot;&gt; all: List&amp;lt;MappableObject&amp;gt;&lt;/p&gt;" style="verticalAlign=top;align=left;overflow=fill;fontSize=14;fontFamily=Helvetica;html=1;rounded=0;shadow=0;comic=0;labelBackgroundColor=none;strokeWidth=1;fillColor=#dae8fc;strokeColor=#6c8ebf;" vertex="1" parent="1">
          <mxGeometry x="-12" y="-1033" width="261" height="163" as="geometry" />
        </mxCell>
        <mxCell id="0dInBAeZ58v6gxg7AQRT-127" value="" style="html=1;rounded=1;edgeStyle=orthogonalEdgeStyle;dashed=0;startArrow=none;endArrow=block;endSize=12;strokeColor=#000000;exitX=0.500;exitY=0.000;exitDx=0;exitDy=0;entryX=1;entryY=0.5;entryDx=0;entryDy=0;fillColor=#dae8fc;" edge="1" parent="1" source="0dInBAeZ58v6gxg7AQRT-123" target="0dInBAeZ58v6gxg7AQRT-122">
          <mxGeometry width="50" height="50" relative="1" as="geometry">
            <Array as="points">
              <mxPoint x="897" y="-610" />
              <mxPoint x="750" y="-610" />
              <mxPoint x="750" y="-995" />
            </Array>
          </mxGeometry>
        </mxCell>
        <mxCell id="0dInBAeZ58v6gxg7AQRT-131" value="" style="html=1;rounded=1;edgeStyle=orthogonalEdgeStyle;dashed=0;startArrow=circlePlus;startFill=0;endArrow=none;strokeColor=#6c8ebf;exitX=1;exitY=0.5;exitDx=0;exitDy=0;entryX=0;entryY=0.5;entryDx=0;entryDy=0;fillColor=#dae8fc;" edge="1" parent="1" source="0dInBAeZ58v6gxg7AQRT-125" target="0dInBAeZ58v6gxg7AQRT-124">
          <mxGeometry width="50" height="50" relative="1" as="geometry">
            <Array as="points">
              <mxPoint x="50" y="-622" />
              <mxPoint x="50" y="-622" />
            </Array>
          </mxGeometry>
        </mxCell>
        <mxCell id="0dInBAeZ58v6gxg7AQRT-134" value="" style="endArrow=block;dashed=1;endFill=0;endSize=12;html=1;rounded=0;entryX=0;entryY=0.5;entryDx=0;entryDy=0;exitX=1;exitY=0.25;exitDx=0;exitDy=0;edgeStyle=orthogonalEdgeStyle;fillColor=#dae8fc;strokeColor=#000000;" edge="1" parent="1" source="0dInBAeZ58v6gxg7AQRT-126" target="0dInBAeZ58v6gxg7AQRT-122">
          <mxGeometry width="160" relative="1" as="geometry">
            <mxPoint x="200" y="-910" as="sourcePoint" />
            <mxPoint x="360" y="-910" as="targetPoint" />
            <Array as="points">
              <mxPoint x="249" y="-995" />
              <mxPoint x="325" y="-995" />
            </Array>
          </mxGeometry>
        </mxCell>
        <mxCell id="0dInBAeZ58v6gxg7AQRT-135" value="" style="endArrow=block;endFill=0;endSize=12;html=1;rounded=0;entryX=1;entryY=0.75;entryDx=0;entryDy=0;exitX=0.5;exitY=0;exitDx=0;exitDy=0;edgeStyle=orthogonalEdgeStyle;fillColor=#dae8fc;strokeColor=#000000;" edge="1" parent="1" source="0dInBAeZ58v6gxg7AQRT-124" target="0dInBAeZ58v6gxg7AQRT-126">
          <mxGeometry width="160" relative="1" as="geometry">
            <mxPoint x="200" y="-790" as="sourcePoint" />
            <mxPoint x="360" y="-790" as="targetPoint" />
          </mxGeometry>
        </mxCell>
        <mxCell id="0dInBAeZ58v6gxg7AQRT-136" value="" style="endArrow=classic;html=1;rounded=0;exitX=0.5;exitY=0;exitDx=0;exitDy=0;entryX=0;entryY=0.75;entryDx=0;entryDy=0;edgeStyle=orthogonalEdgeStyle;" edge="1" parent="1" source="0dInBAeZ58v6gxg7AQRT-89" target="0dInBAeZ58v6gxg7AQRT-124">
          <mxGeometry width="50" height="50" relative="1" as="geometry">
            <mxPoint x="200" y="-210" as="sourcePoint" />
            <mxPoint x="250" y="-260" as="targetPoint" />
          </mxGeometry>
        </mxCell>
        <mxCell id="0dInBAeZ58v6gxg7AQRT-137" value="" style="endArrow=classic;html=1;rounded=0;exitX=0.5;exitY=0;exitDx=0;exitDy=0;entryX=0.25;entryY=1;entryDx=0;entryDy=0;edgeStyle=orthogonalEdgeStyle;" edge="1" parent="1" source="0dInBAeZ58v6gxg7AQRT-96" target="0dInBAeZ58v6gxg7AQRT-124">
          <mxGeometry width="50" height="50" relative="1" as="geometry">
            <mxPoint x="200" y="-210" as="sourcePoint" />
            <mxPoint x="250" y="-260" as="targetPoint" />
          </mxGeometry>
        </mxCell>
        <mxCell id="0dInBAeZ58v6gxg7AQRT-138" value="" style="endArrow=classic;html=1;rounded=0;entryX=0.5;entryY=1;entryDx=0;entryDy=0;exitX=0;exitY=0.5;exitDx=0;exitDy=0;edgeStyle=orthogonalEdgeStyle;" edge="1" parent="1" source="0dInBAeZ58v6gxg7AQRT-109" target="0dInBAeZ58v6gxg7AQRT-124">
          <mxGeometry width="50" height="50" relative="1" as="geometry">
            <mxPoint x="700" y="-210" as="sourcePoint" />
            <mxPoint x="750" y="-260" as="targetPoint" />
            <Array as="points">
              <mxPoint x="680" y="-92" />
              <mxPoint x="680" y="-240" />
              <mxPoint x="312" y="-240" />
            </Array>
          </mxGeometry>
        </mxCell>
        <mxCell id="0dInBAeZ58v6gxg7AQRT-139" value="" style="endArrow=classic;html=1;rounded=0;entryX=0.75;entryY=1;entryDx=0;entryDy=0;exitX=0.5;exitY=0;exitDx=0;exitDy=0;edgeStyle=orthogonalEdgeStyle;" edge="1" parent="1" source="0dInBAeZ58v6gxg7AQRT-110" target="0dInBAeZ58v6gxg7AQRT-124">
          <mxGeometry width="50" height="50" relative="1" as="geometry">
            <mxPoint x="700" y="-210" as="sourcePoint" />
            <mxPoint x="750" y="-260" as="targetPoint" />
          </mxGeometry>
        </mxCell>
        <mxCell id="0dInBAeZ58v6gxg7AQRT-140" value="" style="endArrow=classic;html=1;rounded=0;entryX=1;entryY=0.75;entryDx=0;entryDy=0;exitX=0.5;exitY=0;exitDx=0;exitDy=0;edgeStyle=orthogonalEdgeStyle;" edge="1" parent="1" source="0dInBAeZ58v6gxg7AQRT-111" target="0dInBAeZ58v6gxg7AQRT-124">
          <mxGeometry width="50" height="50" relative="1" as="geometry">
            <mxPoint x="1240" y="-280" as="sourcePoint" />
            <mxPoint x="750" y="-260" as="targetPoint" />
            <Array as="points">
              <mxPoint x="1571" y="-340" />
              <mxPoint x="680" y="-340" />
              <mxPoint x="680" y="-509" />
            </Array>
          </mxGeometry>
        </mxCell>
        <mxCell id="0dInBAeZ58v6gxg7AQRT-141" value="" style="endArrow=block;endFill=0;endSize=12;html=1;rounded=0;exitX=0;exitY=0.25;exitDx=0;exitDy=0;entryX=0.5;entryY=1;entryDx=0;entryDy=0;edgeStyle=orthogonalEdgeStyle;" edge="1" parent="1" source="0dInBAeZ58v6gxg7AQRT-7" target="0dInBAeZ58v6gxg7AQRT-123">
          <mxGeometry width="160" relative="1" as="geometry">
            <mxPoint x="460" y="-180" as="sourcePoint" />
            <mxPoint x="620" y="-180" as="targetPoint" />
            <Array as="points">
              <mxPoint x="-60" y="67" />
              <mxPoint x="-60" y="-200" />
              <mxPoint x="897" y="-200" />
            </Array>
          </mxGeometry>
        </mxCell>
        <mxCell id="0dInBAeZ58v6gxg7AQRT-142" value="" style="endArrow=block;endFill=0;endSize=12;html=1;rounded=0;entryX=1;entryY=0.5;entryDx=0;entryDy=0;exitX=0.25;exitY=0;exitDx=0;exitDy=0;edgeStyle=orthogonalEdgeStyle;" edge="1" parent="1" source="0dInBAeZ58v6gxg7AQRT-67" target="0dInBAeZ58v6gxg7AQRT-123">
          <mxGeometry width="160" relative="1" as="geometry">
            <mxPoint x="880" y="-180" as="sourcePoint" />
            <mxPoint x="1040" y="-180" as="targetPoint" />
            <Array as="points">
              <mxPoint x="1165" y="30" />
              <mxPoint x="1090" y="30" />
              <mxPoint x="1090" y="-436" />
            </Array>
          </mxGeometry>
        </mxCell>
        <mxCell id="3HO8hvbOx8Z2uQKgtld--2" value="&lt;p style=&quot;margin:0px;margin-top:4px;text-align:center;&quot;&gt;&lt;i&gt;&amp;lt;&amp;lt;interface&amp;gt;&amp;gt;&lt;/i&gt;&lt;br&gt;&lt;b&gt;Displayable&lt;/b&gt;&lt;/p&gt;&lt;hr size=&quot;1&quot;&gt;&lt;p style=&quot;margin:0 0 0 4px;line-height:1.6;&quot;&gt;+ getDisplayableString() : String&lt;br&gt;&lt;/p&gt;&lt;p style=&quot;margin:0 0 0 4px;line-height:1.6;&quot;&gt;+ getSplitter(): String&lt;/p&gt;" style="verticalAlign=top;align=left;overflow=fill;fontSize=14;fontFamily=Helvetica;html=1;rounded=0;shadow=0;comic=0;labelBackgroundColor=none;strokeWidth=1;fillColor=#dae8fc;strokeColor=#6c8ebf;" vertex="1" parent="1">
          <mxGeometry x="-710" y="-491.5" width="220" height="110" as="geometry" />
        </mxCell>
        <mxCell id="3HO8hvbOx8Z2uQKgtld--4" value="" style="endArrow=classic;html=1;rounded=0;entryX=1;entryY=0.5;entryDx=0;entryDy=0;exitX=0;exitY=0.5;exitDx=0;exitDy=0;edgeStyle=orthogonalEdgeStyle;" edge="1" parent="1" source="0dInBAeZ58v6gxg7AQRT-7" target="3HO8hvbOx8Z2uQKgtld--2">
          <mxGeometry width="50" height="50" relative="1" as="geometry">
            <mxPoint x="-120" y="-120" as="sourcePoint" />
            <mxPoint x="-70" y="-170" as="targetPoint" />
            <Array as="points">
              <mxPoint x="-90" y="125" />
              <mxPoint x="-90" y="-437" />
            </Array>
          </mxGeometry>
        </mxCell>
        <mxCell id="3HO8hvbOx8Z2uQKgtld--5" value="" style="endArrow=classic;html=1;rounded=0;entryX=0.75;entryY=1;entryDx=0;entryDy=0;exitX=0;exitY=0.25;exitDx=0;exitDy=0;edgeStyle=orthogonalEdgeStyle;dashed=1;" edge="1" parent="1" source="0dInBAeZ58v6gxg7AQRT-1" target="3HO8hvbOx8Z2uQKgtld--2">
          <mxGeometry width="50" height="50" relative="1" as="geometry">
            <mxPoint x="-510" y="420" as="sourcePoint" />
            <mxPoint x="-70" y="-320" as="targetPoint" />
          </mxGeometry>
        </mxCell>
      </root>
    </mxGraphModel>
  </diagram>
</mxfile>
